<svg width="64" height="64" viewBox="0 0 64 64" fill="none" xmlns="http://www.w3.org/2000/svg">
  <defs>
    <linearGradient id="aiGrad" x1="8" y1="8" x2="56" y2="56" gradientUnits="userSpaceOnUse">
      <stop stop-color="#7C5CFF"/>
      <stop offset="1" stop-color="#22D3EE"/>
    </linearGradient>
  </defs>
  <path d="M34 6c1.6 8.4 5.6 12.4 14 14-8.4 1.6-12.4 5.6-14 14-1.6-8.4-5.6-12.4-14-14 8.4-1.6 12.4-5.6 14-14Z" fill="url(#aiGrad)"/>
  <path d="M16 36c.9 4.7 3.1 6.9 7.8 7.8-4.7.9-6.9 3.1-7.8 7.8-.9-4.7-3.1-6.9-7.8-7.8 4.7-.9 6.9-3.1 7.8-7.8Z" fill="url(#aiGrad)" opacity="0.85"/>
  <path d="M48 38c.6 3.1 2 4.5 5.1 5.1-3.1.6-4.5 2-5.1 5.1-.6-3.1-2-4.5-5.1-5.1 3.1-.6 4.5-2 5.1-5.1Z" fill="url(#aiGrad)" opacity="0.7"/>
</svg>
